<svg width="20" height="24" viewBox="0 0 20 24" fill="none" xmlns="http://www.w3.org/2000/svg">
<path d="M9.80181 7.73765C11.8169 7.73765 13.8244 7.7452 15.8395 7.7301C16.1414 7.7301 16.2093 7.80557 16.2093 8.10746C16.1942 10.998 16.2018 13.8886 16.2018 16.7866C16.2018 17.964 15.6055 18.5678 14.4282 18.598C14.1565 18.6055 13.7867 18.4772 13.6358 18.6508C13.4999 18.8168 13.5829 19.1715 13.5829 19.4432C13.5829 20.1828 13.5829 20.93 13.5829 21.6696C13.5829 22.4923 13.0018 23.1187 12.232 23.1262C11.3641 23.1338 10.7452 22.5602 10.7301 21.6923C10.715 20.7489 10.7226 19.8055 10.7301 18.8621C10.7301 18.6583 10.6924 18.5753 10.466 18.5829C9.99804 18.598 9.53766 18.598 9.06974 18.5829C8.83578 18.5753 8.81314 18.6659 8.81314 18.8621C8.82069 19.7828 8.82069 20.696 8.81314 21.6168C8.81314 22.5074 8.22447 23.1187 7.38674 23.1187C6.55655 23.1187 5.95278 22.4998 5.95278 21.6168C5.94524 20.7111 5.93769 19.8055 5.96033 18.8998C5.96788 18.6281 5.88486 18.5678 5.62826 18.5753C5.28109 18.5904 4.92637 18.613 4.57921 18.53C3.88487 18.3564 3.37922 17.798 3.37922 17.081C3.37167 14.047 3.37921 11.0206 3.36412 7.9867C3.36412 7.71501 3.49997 7.72256 3.68865 7.72256C5.72637 7.73765 7.76409 7.73765 9.80181 7.73765Z" fill="white"/>
<path d="M2.85847 11.8961C2.85847 12.8772 2.85847 13.8583 2.85847 14.8319C2.85847 15.6696 2.23961 16.3111 1.43961 16.3187C0.647165 16.3262 0.0132075 15.6923 0.00566034 14.847C-0.00188678 12.8772 -0.00188678 10.8998 0.00566034 8.93005C0.00566034 8.07723 0.624524 7.46591 1.43961 7.47346C2.26225 7.481 2.85092 8.09232 2.85092 8.95269C2.85847 9.94137 2.85847 10.9149 2.85847 11.8961Z" fill="white"/>
<path d="M19.5376 11.8961C19.5376 12.8772 19.5376 13.8583 19.5376 14.8319C19.5376 15.6545 18.9414 16.296 18.1565 16.3187C17.364 16.3413 16.6848 15.7074 16.6848 14.8847C16.6697 12.8998 16.6697 10.9149 16.6848 8.93005C16.6923 8.08477 17.3188 7.46591 18.1338 7.47346C18.9565 7.481 19.5376 8.09232 19.5452 8.95269C19.5376 9.94136 19.5376 10.9225 19.5376 11.8961Z" fill="white"/>
<path d="M16.1037 6.24329C15.7338 4.48481 14.7452 3.17161 13.2131 2.26596C12.9716 2.12256 12.9414 2.02445 13.0924 1.78294C13.3641 1.33766 13.6056 0.869739 13.8546 0.409365C13.9225 0.281064 14.0433 0.130122 13.832 0.0320092C13.6508 -0.0510091 13.5678 0.0923862 13.4924 0.228234C13.2282 0.726344 12.949 1.20936 12.6848 1.70747C12.6018 1.87351 12.5263 1.90369 12.3452 1.83577C10.6395 1.17162 8.9188 1.17162 7.21315 1.83577C7.03202 1.90369 6.95655 1.88105 6.86599 1.71502C6.60939 1.21691 6.33014 0.726344 6.06599 0.228234C5.99052 0.0848391 5.89996 -0.0585562 5.72637 0.0244621C5.5377 0.122575 5.63581 0.273517 5.71128 0.409365C5.96033 0.862192 6.18675 1.32257 6.45844 1.75275C6.61693 2.00935 6.58674 2.11501 6.3226 2.2735C4.57921 3.32255 3.54526 4.83198 3.37167 6.89234C3.34903 7.17913 3.41695 7.2546 3.71129 7.24705C5.73392 7.23196 7.75655 7.23951 9.78672 7.23951C11.6358 7.23951 13.4848 7.23951 15.3339 7.23951C16.3225 7.2546 16.315 7.2546 16.1037 6.24329ZM6.85089 4.92254C6.5792 4.92254 6.33014 4.67349 6.3226 4.39424C6.31505 4.09236 6.51882 3.86595 6.82071 3.85085C7.14523 3.83576 7.37919 4.04708 7.38674 4.35651C7.39429 4.65839 7.13768 4.92254 6.85089 4.92254ZM12.6999 4.92254C12.4131 4.92254 12.149 4.65085 12.1565 4.36406C12.1641 4.07726 12.4056 3.85085 12.6924 3.85085C12.9867 3.85085 13.2207 4.06972 13.2282 4.35651C13.2433 4.65839 12.9867 4.92254 12.6999 4.92254Z" fill="white"/>
</svg>
