<svg width="19" height="23" viewBox="0 0 19 23" fill="none" xmlns="http://www.w3.org/2000/svg">
<path d="M0.00511565 12.4977C-0.0397498 10.7404 0.349084 9.16268 1.39594 7.80176C2.55497 6.28382 4.10282 5.50615 6.03204 5.5884C6.59286 5.61083 7.12376 5.79777 7.64719 5.99219C9.82317 6.79229 9.23244 6.76238 11.3486 5.98471C13.1058 5.34164 14.7883 5.34912 16.4483 6.23147C17.039 6.54553 17.5101 7.00166 17.9513 7.49518C18.1382 7.71203 18.1233 7.8242 17.8765 7.99618C16.7399 8.76637 15.9847 9.81323 15.7379 11.1816C15.3192 13.4623 16.3885 15.6308 18.4672 16.715C18.6916 16.8347 18.7514 16.9094 18.6542 17.1786C18.0634 18.891 17.1288 20.4015 15.9323 21.7549C14.878 22.9588 13.7265 23.228 12.216 22.6597C11.4832 22.383 10.7653 22.0764 9.97272 22.0465C9.12775 22.0166 8.33513 22.2709 7.56494 22.5999C7.09385 22.7943 6.60781 22.9663 6.10681 22.9962C5.33662 23.0411 4.68608 22.6821 4.14769 22.1662C2.43533 20.5286 1.30621 18.5321 0.610799 16.2813C0.214488 15.0326 -0.0397498 13.7614 0.00511565 12.4977Z" fill="white"/>
<path d="M9.33713 4.3172C9.5465 2.54502 10.6607 1.1168 12.5824 0.286791C12.9338 0.13724 13.3077 0.032554 13.6891 0.00264372C13.8461 -0.00483385 13.9732 -0.0123114 13.9807 0.219493C14.0704 2.41042 12.4029 4.74342 10.4588 5.17712C10.3167 5.20703 10.1671 5.22947 10.0176 5.2519C9.33713 5.35659 9.3147 5.34163 9.33713 4.3172Z" fill="white"/>
</svg>
