<svg width="23" height="23" viewBox="0 0 23 23" fill="none" xmlns="http://www.w3.org/2000/svg">
<path d="M11.5 2.07C14.5785 2.07 14.9323 2.08769 16.1531 2.14077C17.2677 2.19385 17.8869 2.37077 18.2939 2.53C18.8246 2.74231 19.2139 2.99 19.6208 3.39692C20.0277 3.80385 20.2754 4.17538 20.4877 4.72385C20.6469 5.13077 20.8415 5.73231 20.8769 6.86461C20.93 8.08538 20.9477 8.43923 20.9477 11.5177C20.9477 14.5962 20.93 14.95 20.8769 16.1708C20.8238 17.2854 20.6469 17.9046 20.4877 18.3115C20.2754 18.8423 20.0277 19.2315 19.6208 19.6385C19.2139 20.0454 18.8423 20.2931 18.2939 20.5054C17.8869 20.6646 17.2854 20.8592 16.1531 20.8946C14.9323 20.9477 14.5785 20.9654 11.5 20.9654C8.42154 20.9654 8.06768 20.9477 6.84691 20.8946C5.7323 20.8415 5.11307 20.6646 4.70615 20.5054C4.17538 20.2931 3.78615 20.0454 3.37923 19.6385C2.9723 19.2315 2.72461 18.86 2.5123 18.3115C2.35307 17.9046 2.15846 17.3031 2.12308 16.1708C2.07 14.95 2.0523 14.5962 2.0523 11.5177C2.0523 8.43923 2.07 8.08538 2.12308 6.86461C2.17615 5.75 2.35307 5.13077 2.5123 4.72385C2.72461 4.19308 2.9723 3.80385 3.37923 3.39692C3.78615 2.99 4.15769 2.74231 4.70615 2.53C5.11307 2.37077 5.71461 2.17615 6.84691 2.14077C8.04999 2.08769 8.42154 2.07 11.5 2.07ZM11.5 0C8.36846 0 7.97922 0.0176912 6.75845 0.0707682C5.53768 0.123845 4.68847 0.31846 3.96308 0.601537C3.20231 0.902307 2.56539 1.29154 1.92847 1.92846C1.29154 2.56538 0.902312 3.20231 0.601543 3.96308C0.318466 4.68846 0.12385 5.53769 0.0707735 6.75846C0.0176966 7.97923 0 8.38615 0 11.5C0 14.6315 0.0176966 15.0208 0.0707735 16.2415C0.12385 17.4623 0.318466 18.3115 0.601543 19.0369C0.902312 19.7977 1.29154 20.4346 1.92847 21.0715C2.56539 21.7085 3.20231 22.0977 3.96308 22.3985C4.68847 22.6815 5.53768 22.8762 6.75845 22.9292C7.97922 22.9823 8.38615 23 11.5 23C14.6315 23 15.0208 22.9823 16.2415 22.9292C17.4623 22.8762 18.3115 22.6815 19.0369 22.3985C19.7977 22.0977 20.4346 21.7085 21.0715 21.0715C21.7085 20.4346 22.0977 19.7977 22.3985 19.0369C22.6815 18.3115 22.8762 17.4623 22.9292 16.2415C22.9823 15.0208 23 14.6138 23 11.5C23 8.38615 22.9823 7.97923 22.9292 6.75846C22.8762 5.53769 22.6815 4.68846 22.3985 3.96308C22.0977 3.20231 21.7085 2.56538 21.0715 1.92846C20.4346 1.29154 19.7977 0.902307 19.0369 0.601537C18.3115 0.31846 17.4623 0.123845 16.2415 0.0707682C15.0208 0.0176912 14.6138 0 11.5 0Z" fill="white"/>
<path d="M11.5 5.60852C8.22692 5.60852 5.59076 8.26237 5.59076 11.5178C5.59076 14.7731 8.24461 17.427 11.5 17.427C14.7554 17.427 17.4092 14.7731 17.4092 11.5178C17.4092 8.26237 14.7554 5.60852 11.5 5.60852ZM11.5 15.357C9.37692 15.357 7.66075 13.6408 7.66075 11.5178C7.66075 9.39467 9.37692 7.67852 11.5 7.67852C13.6231 7.67852 15.3392 9.39467 15.3392 11.5178C15.3392 13.6408 13.6231 15.357 11.5 15.357Z" fill="white"/>
<path d="M17.6392 6.74071C18.4014 6.74071 19.0192 6.12287 19.0192 5.36071C19.0192 4.59856 18.4014 3.98071 17.6392 3.98071C16.8771 3.98071 16.2592 4.59856 16.2592 5.36071C16.2592 6.12287 16.8771 6.74071 17.6392 6.74071Z" fill="white"/>
</svg>
