<svg width="14" height="23" viewBox="0 0 14 23" fill="none" xmlns="http://www.w3.org/2000/svg">
<path d="M6.63825 11.8742C9.91446 11.8742 12.5753 9.21331 12.5753 5.9371C12.5753 2.66088 9.91446 0 6.63825 0C3.36204 0 0.701157 2.66088 0.701157 5.9371C0.717787 9.21331 3.37867 11.8742 6.63825 11.8742ZM6.63825 3.49241C7.98532 3.49241 9.09957 4.59002 9.09957 5.95372C9.09957 7.30079 8.00196 8.41504 6.63825 8.41504C5.29118 8.41504 4.17693 7.31742 4.17693 5.95372C4.19356 4.59002 5.29118 3.49241 6.63825 3.49241Z" fill="white"/>
<path d="M9.04968 16.7136C10.2637 16.4309 11.4278 15.9653 12.4922 15.2834C13.3071 14.7679 13.5565 13.7035 13.041 12.8886C12.5254 12.0737 11.4611 11.8243 10.6462 12.3398C8.21815 13.8698 5.09161 13.8698 2.66356 12.3398C1.84866 11.8243 0.784308 12.0737 0.268762 12.8886C-0.246784 13.7035 0.00267647 14.7679 0.817572 15.2834C1.88192 15.9486 3.06269 16.4309 4.26009 16.7136L0.950614 20.0231C0.268763 20.705 0.268763 21.8026 0.950614 22.4844C1.28322 22.817 1.73225 23 2.18127 23C2.63029 23 3.07932 22.8337 3.41193 22.4844L6.67151 19.2248L9.93109 22.4844C10.6129 23.1663 11.7106 23.1663 12.3924 22.4844C13.0743 21.8026 13.0743 20.705 12.3924 20.0231L9.04968 16.7136Z" fill="white"/>
</svg>
