<svg width="22" height="21" viewBox="0 0 22 21" fill="none" xmlns="http://www.w3.org/2000/svg">
<path fill-rule="evenodd" clip-rule="evenodd" d="M17.2222 6.22222C17.2222 2.78578 14.4364 0 11 0C7.56355 0 4.77777 2.78578 4.77777 6.22222C4.77777 8.43961 5.93765 10.3861 7.6838 11.4881C3.94557 12.8851 1.20406 16.5781 0.914276 21H2.47372C2.83602 16.2093 6.51499 12.4444 11 12.4444C15.485 12.4444 19.164 16.2093 19.5263 21H21.0857C20.7959 16.5781 18.0544 12.8851 14.3162 11.4881C16.0623 10.3861 17.2222 8.43961 17.2222 6.22222ZM15.6667 6.22222C15.6667 3.64489 13.5773 1.55556 11 1.55556C8.42266 1.55556 6.33332 3.64489 6.33332 6.22222C6.33332 8.79955 8.42266 10.8889 11 10.8889C13.5773 10.8889 15.6667 8.79955 15.6667 6.22222Z" fill="white"/>
</svg>
