<svg width="23" height="19" viewBox="0 0 23 19" fill="none" xmlns="http://www.w3.org/2000/svg">
<path d="M23 2.20932C22.1591 2.58853 21.2523 2.83584 20.2961 2.95125C21.2688 2.37419 22.0108 1.43441 22.3735 0.346236C21.4667 0.890322 20.4444 1.28602 19.3728 1.48387C18.5154 0.560574 17.2788 0 15.9269 0C13.3219 0 11.2115 2.11039 11.2115 4.71541C11.2115 5.07814 11.2609 5.44086 11.3269 5.7871C7.40287 5.58925 3.92402 3.70968 1.59929 0.857348C1.1871 1.54982 0.95627 2.35771 0.95627 3.23154C0.95627 4.8638 1.79713 6.3147 3.05018 7.15556C2.27527 7.13907 1.54982 6.92473 0.90681 6.56201C0.90681 6.5785 0.90681 6.59498 0.90681 6.62796C0.90681 8.91971 2.53907 10.8158 4.69893 11.2609C4.30323 11.3763 3.89104 11.4258 3.46237 11.4258C3.16559 11.4258 2.86881 11.3928 2.57204 11.3434C3.16559 13.2229 4.91326 14.5749 6.97419 14.6244C5.35842 15.8939 3.33046 16.6523 1.12115 16.6523C0.741933 16.6523 0.362724 16.6358 0 16.5864C2.09391 17.9219 4.56703 18.7133 7.238 18.7133C15.9269 18.7133 20.6588 11.5247 20.6588 5.29247C20.6588 5.09462 20.6588 4.88029 20.6423 4.68244C21.5656 3.98996 22.3735 3.1491 23 2.20932Z" fill="white"/>
</svg>
