<svg width="23" height="14" viewBox="0 0 23 14" fill="none" xmlns="http://www.w3.org/2000/svg">
<path fill-rule="evenodd" clip-rule="evenodd" d="M11.2417 13.0471H12.6162C12.6162 13.0471 13.0314 13.0041 13.2462 12.775C13.4466 12.5603 13.4323 12.1737 13.4323 12.1737C13.4323 12.1737 13.4037 10.3267 14.2628 10.0547C15.1075 9.78263 16.1956 11.8444 17.3411 12.6319C18.2144 13.2332 18.8731 13.1043 18.8731 13.1043L21.9514 13.0614C21.9514 13.0614 23.5549 12.9612 22.7961 11.7012C22.7388 11.601 22.3523 10.7706 20.5053 9.05243C18.5724 7.26271 18.8301 7.54907 21.1639 4.45645C22.5813 2.56651 23.1397 1.42109 22.9679 0.919973C22.7961 0.447489 21.7652 0.576348 21.7652 0.576348L18.3003 0.604984C18.3003 0.604984 18.0426 0.576349 17.8565 0.69089C17.6704 0.805432 17.5558 1.06315 17.5558 1.06315C17.5558 1.06315 17.0118 2.52356 16.2815 3.7692C14.7352 6.38933 14.1196 6.53251 13.8762 6.3607C13.2891 5.98844 13.4323 4.84302 13.4323 4.02692C13.4323 1.49268 13.8189 0.433172 12.6878 0.161136C12.3155 0.0752297 12.0292 0.00364028 11.0699 0.00364028C9.83858 -0.0106774 8.79339 0.00364116 8.19205 0.304313C7.79115 0.490443 7.49048 0.934292 7.67661 0.948609C7.90569 0.977245 8.42113 1.09179 8.69317 1.46405C9.05111 1.95085 9.03679 3.02468 9.03679 3.02468C9.03679 3.02468 9.23724 6.01708 8.56431 6.38934C8.09182 6.64705 7.46184 6.1173 6.08735 3.74056C5.38578 2.52356 4.85602 1.17769 4.85602 1.17769C4.85602 1.17769 4.7558 0.919973 4.56967 0.791114C4.35491 0.633619 4.03992 0.576348 4.03992 0.576348L0.746845 0.590667C0.746845 0.590667 0.245725 0.604984 0.0739126 0.81975C-0.0835821 1.00588 0.0595952 1.40678 0.0595952 1.40678C0.0595952 1.40678 2.63678 7.43453 5.55759 10.4699C8.20637 13.2332 11.2417 13.0471 11.2417 13.0471Z" fill="white"/>
</svg>
