<svg width="24" height="20" viewBox="0 0 24 20" fill="none" xmlns="http://www.w3.org/2000/svg">
<path d="M3.20868 8.42629C3.60099 7.075 3.97877 5.75278 4.36381 4.43782C4.6762 3.36261 4.9886 2.28739 5.28646 1.21218C5.33005 1.04508 5.40996 0.957904 5.56979 0.892519C6.58689 0.478416 7.63304 0.187817 8.73005 0.049783C10.4809 -0.175431 11.9775 0.383971 13.3942 1.31389C13.583 1.43739 13.6194 1.55363 13.5613 1.74978C13.1108 3.27543 12.6677 4.80834 12.2172 6.33398C11.9848 7.12586 11.7377 7.91048 11.5489 8.70962C11.4762 9.00022 11.3818 8.89125 11.251 8.80407C10.6771 8.40449 10.0668 8.07757 9.41296 7.83783C7.88732 7.29295 6.36167 7.43099 4.8433 7.88142C4.31295 8.04851 3.77535 8.2374 3.20868 8.42629Z" fill="white"/>
<path d="M23.0566 2.81775C22.8386 3.58784 22.6425 4.3216 22.4318 5.0481C21.9523 6.71904 21.4655 8.38998 20.9933 10.0609C20.957 10.1917 20.9279 10.2571 20.7899 10.3152C19.4313 10.8455 18.0583 11.2596 16.5762 11.2233C15.4283 11.1943 14.3967 10.8237 13.4305 10.2498C13.1617 10.09 12.7694 9.98827 12.6895 9.71221C12.6168 9.45793 12.7984 9.12374 12.8856 8.83314C13.3651 7.1622 13.8591 5.49853 14.3386 3.82758C14.4476 3.44981 14.5711 3.07203 14.6583 2.69425C14.7236 2.41818 14.7672 2.30921 15.0724 2.51263C15.8424 3.02844 16.6634 3.44254 17.5788 3.62417C18.7993 3.86391 19.998 3.77673 21.1895 3.44981C21.8143 3.26818 22.41 3.05023 23.0566 2.81775Z" fill="white"/>
<path d="M20.5357 11.623C20.1724 12.9017 19.8165 14.1512 19.4532 15.3935C19.119 16.5632 18.7848 17.7256 18.4579 18.8952C18.4288 19.0042 18.3707 19.0623 18.2763 19.0987C17.0776 19.5491 15.8716 19.9269 14.5639 19.9923C12.9365 20.0722 11.5562 19.52 10.2558 18.6264C10.0959 18.5175 10.1395 18.423 10.1758 18.2923C10.8152 16.0837 11.4472 13.8824 12.0865 11.6739C12.2464 11.1217 12.2609 11.1072 12.7476 11.4196C13.9464 12.1897 15.254 12.6183 16.6852 12.5457C17.9058 12.4803 19.09 12.1897 20.216 11.7029C20.2814 11.6739 20.3468 11.6448 20.4194 11.623C20.4485 11.623 20.4848 11.623 20.5357 11.623Z" fill="white"/>
<path d="M8.9698 17.7108C8.40313 17.333 7.84373 16.9843 7.23348 16.7373C5.70783 16.1052 4.1604 16.1561 2.59843 16.5775C2.10441 16.7082 1.61039 16.8608 1.13817 17.0497C1.03646 17.086 0.934751 17.1441 0.825777 17.0715C0.695007 16.9843 0.789453 16.8608 0.818513 16.7736C1.26168 15.2335 1.71937 13.6933 2.16253 12.1531C2.35869 11.4847 2.54031 10.8164 2.71467 10.148C2.77279 9.92276 2.86723 9.78473 3.10698 9.69028C4.44373 9.1672 5.80228 8.78216 7.25527 8.82575C8.65014 8.86934 9.8416 9.45054 10.9749 10.1916C11.1275 10.2933 11.0621 10.4313 11.0331 10.5403C10.6698 11.8407 10.2993 13.1339 9.92878 14.427C9.61638 15.5168 9.29672 16.592 8.9698 17.7108Z" fill="white"/>
</svg>
